# xmcd
#
# Track frame offsets: 
#        182
#        18572
#        26515
#        41237
#        60880
#        73510
#        89195
#        102770
#        118115
#        134657
#        153290
#        172562
#        190730
#        200207
#        218850
#        235537
#        252562
#
# Disc length: 3514 seconds
#
# Revision: 7
# Processed by: cddbd v1.5.2PL0 Copyright (c) Steve Scherf et al.
# Submitted via: ExactAudioCopy v0.99pb4
#
DISCID=ee0db811
DTITLE=Paul McCartney - Unplugged (The Official Bootleg)
DYEAR=1991
DGENRE=Rock
TTITLE0=Be-Bop-A-Lula (live)
TTITLE1=I Lost My Little Girl (live)
TTITLE2=Here There And Everywhere (live)
TTITLE3=Blue Moon Of Kentucky (live)
TTITLE4=We Can Work It Out (live)
TTITLE5=San Francisco Bay Blues (live)
TTITLE6=I've Just Seen A Face (live)
TTITLE7=Every Night (live)
TTITLE8=She's A Woman (live)
TTITLE9=Hi-Heel Sneakers (live)
TTITLE10=And I Love Her (live)
TTITLE11=That Would Be Something (live)
TTITLE12=Blackbird (live)
TTITLE13=Ain't No Sunshine (live)
TTITLE14=Good Rockin' Tonight (live)
TTITLE15=Singing The Blues (live)
TTITLE16=Junk (live)
EXTD=Capitol CDP 7964132\n1991 MPL Communications Ltd. YEAR: 1991
EXTT0=
EXTT1=
EXTT2=
EXTT3=
EXTT4=
EXTT5=
EXTT6=
EXTT7=
EXTT8=
EXTT9=
EXTT10=
EXTT11=
EXTT12=
EXTT13=
EXTT14=
EXTT15=
EXTT16=
PLAYORDER=
